<mxfile host="app.diagrams.net" agent="Mozilla/5.0 (Windows NT 10.0; Win64; x64) AppleWebKit/537.36 (KHTML, like Gecko) Chrome/133.0.0.0 Safari/537.36" version="26.0.11">
  <diagram name="Page-1" id="xmYILQOxOdcbQQKfgQBH">
    <mxGraphModel dx="1970" dy="1560" grid="1" gridSize="10" guides="1" tooltips="1" connect="1" arrows="1" fold="1" page="1" pageScale="1" pageWidth="850" pageHeight="1100" math="0" shadow="0">
      <root>
        <mxCell id="0" />
        <mxCell id="1" parent="0" />
        <mxCell id="I_nZyF2uMbn7yxlX-DZq-2" value="" style="edgeStyle=orthogonalEdgeStyle;rounded=0;orthogonalLoop=1;jettySize=auto;html=1;endArrow=none;startFill=1;startArrow=classic;" parent="1" source="7FEaSvrpscoCsIPX81Pi-1" target="7FEaSvrpscoCsIPX81Pi-3" edge="1">
          <mxGeometry relative="1" as="geometry" />
        </mxCell>
        <mxCell id="7FEaSvrpscoCsIPX81Pi-1" value="HOSTGROUP" style="rounded=0;whiteSpace=wrap;html=1;" parent="1" vertex="1">
          <mxGeometry x="200" y="152" width="140" height="60" as="geometry" />
        </mxCell>
        <mxCell id="I_nZyF2uMbn7yxlX-DZq-13" value="" style="edgeStyle=orthogonalEdgeStyle;rounded=0;orthogonalLoop=1;jettySize=auto;html=1;exitX=0;exitY=0.5;exitDx=0;exitDy=0;" parent="1" source="7FEaSvrpscoCsIPX81Pi-3" target="I_nZyF2uMbn7yxlX-DZq-1" edge="1">
          <mxGeometry relative="1" as="geometry">
            <mxPoint x="90" y="277" as="targetPoint" />
            <Array as="points">
              <mxPoint x="200" y="257" />
              <mxPoint x="-300" y="257" />
            </Array>
          </mxGeometry>
        </mxCell>
        <mxCell id="McS0gaPzS9fzuC6fe3Yt-12" value="" style="edgeStyle=orthogonalEdgeStyle;rounded=0;orthogonalLoop=1;jettySize=auto;html=1;" parent="1" source="7FEaSvrpscoCsIPX81Pi-3" target="I_nZyF2uMbn7yxlX-DZq-4" edge="1">
          <mxGeometry relative="1" as="geometry">
            <Array as="points">
              <mxPoint x="220" y="417" />
              <mxPoint x="220" y="417" />
            </Array>
          </mxGeometry>
        </mxCell>
        <mxCell id="7FEaSvrpscoCsIPX81Pi-3" value="HOST" style="rounded=0;whiteSpace=wrap;html=1;" parent="1" vertex="1">
          <mxGeometry x="200" y="247" width="140" height="60" as="geometry" />
        </mxCell>
        <mxCell id="7FEaSvrpscoCsIPX81Pi-14" value="" style="edgeStyle=orthogonalEdgeStyle;rounded=0;orthogonalLoop=1;jettySize=auto;html=1;" parent="1" source="7FEaSvrpscoCsIPX81Pi-12" target="7FEaSvrpscoCsIPX81Pi-1" edge="1">
          <mxGeometry relative="1" as="geometry">
            <mxPoint x="390" y="147" as="sourcePoint" />
            <mxPoint x="320" y="157" as="targetPoint" />
            <Array as="points">
              <mxPoint x="270" y="107" />
            </Array>
          </mxGeometry>
        </mxCell>
        <mxCell id="7FEaSvrpscoCsIPX81Pi-21" value="" style="edgeStyle=orthogonalEdgeStyle;rounded=0;orthogonalLoop=1;jettySize=auto;html=1;" parent="1" source="7FEaSvrpscoCsIPX81Pi-12" edge="1">
          <mxGeometry relative="1" as="geometry">
            <Array as="points">
              <mxPoint x="760" y="113" />
            </Array>
            <mxPoint x="760" y="157" as="targetPoint" />
          </mxGeometry>
        </mxCell>
        <mxCell id="7FEaSvrpscoCsIPX81Pi-28" value="" style="edgeStyle=orthogonalEdgeStyle;rounded=0;orthogonalLoop=1;jettySize=auto;html=1;" parent="1" source="7FEaSvrpscoCsIPX81Pi-12" target="G853SdPx_o47AiwNdgev-1" edge="1">
          <mxGeometry relative="1" as="geometry">
            <Array as="points">
              <mxPoint x="-100" y="107" />
            </Array>
          </mxGeometry>
        </mxCell>
        <mxCell id="McS0gaPzS9fzuC6fe3Yt-3" value="" style="edgeStyle=orthogonalEdgeStyle;rounded=0;orthogonalLoop=1;jettySize=auto;html=1;startArrow=classic;startFill=1;" parent="1" source="7FEaSvrpscoCsIPX81Pi-12" target="McS0gaPzS9fzuC6fe3Yt-1" edge="1">
          <mxGeometry relative="1" as="geometry">
            <mxPoint x="427" y="-124" as="targetPoint" />
          </mxGeometry>
        </mxCell>
        <mxCell id="G853SdPx_o47AiwNdgev-5" value="Cert SSL" style="edgeLabel;html=1;align=center;verticalAlign=middle;resizable=0;points=[];fontSize=12;fontStyle=1" parent="McS0gaPzS9fzuC6fe3Yt-3" vertex="1" connectable="0">
          <mxGeometry x="0.1045" relative="1" as="geometry">
            <mxPoint y="-36" as="offset" />
          </mxGeometry>
        </mxCell>
        <mxCell id="McS0gaPzS9fzuC6fe3Yt-16" value="" style="edgeStyle=orthogonalEdgeStyle;rounded=0;orthogonalLoop=1;jettySize=auto;html=1;" parent="1" source="7FEaSvrpscoCsIPX81Pi-12" target="7FEaSvrpscoCsIPX81Pi-19" edge="1">
          <mxGeometry relative="1" as="geometry">
            <mxPoint x="577" y="113" as="targetPoint" />
            <Array as="points">
              <mxPoint x="570" y="113" />
            </Array>
          </mxGeometry>
        </mxCell>
        <mxCell id="G853SdPx_o47AiwNdgev-3" value="" style="edgeStyle=orthogonalEdgeStyle;rounded=0;orthogonalLoop=1;jettySize=auto;html=1;" parent="1" source="7FEaSvrpscoCsIPX81Pi-12" target="7FEaSvrpscoCsIPX81Pi-27" edge="1">
          <mxGeometry relative="1" as="geometry">
            <Array as="points">
              <mxPoint x="70" y="107" />
            </Array>
          </mxGeometry>
        </mxCell>
        <mxCell id="7FEaSvrpscoCsIPX81Pi-12" value="Zabbix&amp;nbsp;&lt;div&gt;FrontEnd&lt;/div&gt;" style="whiteSpace=wrap;html=1;aspect=fixed;" parent="1" vertex="1">
          <mxGeometry x="372" y="58" width="110" height="110" as="geometry" />
        </mxCell>
        <mxCell id="7FEaSvrpscoCsIPX81Pi-17" value="" style="edgeStyle=orthogonalEdgeStyle;rounded=0;orthogonalLoop=1;jettySize=auto;html=1;startArrow=classic;startFill=1;" parent="1" source="7FEaSvrpscoCsIPX81Pi-16" target="7FEaSvrpscoCsIPX81Pi-12" edge="1">
          <mxGeometry relative="1" as="geometry" />
        </mxCell>
        <mxCell id="G853SdPx_o47AiwNdgev-15" value="" style="edgeStyle=orthogonalEdgeStyle;rounded=0;orthogonalLoop=1;jettySize=auto;html=1;" parent="1" source="7FEaSvrpscoCsIPX81Pi-16" edge="1">
          <mxGeometry relative="1" as="geometry">
            <mxPoint x="415.5" y="533.5" as="sourcePoint" />
            <mxPoint x="426" y="640" as="targetPoint" />
          </mxGeometry>
        </mxCell>
        <mxCell id="7FEaSvrpscoCsIPX81Pi-16" value="Zabbix BackEnd" style="shape=cylinder3;whiteSpace=wrap;html=1;boundedLbl=1;backgroundOutline=1;size=15;" parent="1" vertex="1">
          <mxGeometry x="394" y="427" width="65" height="106.5" as="geometry" />
        </mxCell>
        <mxCell id="7FEaSvrpscoCsIPX81Pi-23" value="" style="edgeStyle=orthogonalEdgeStyle;rounded=0;orthogonalLoop=1;jettySize=auto;html=1;endArrow=none;startFill=1;startArrow=classic;" parent="1" source="7FEaSvrpscoCsIPX81Pi-19" target="7FEaSvrpscoCsIPX81Pi-22" edge="1">
          <mxGeometry relative="1" as="geometry" />
        </mxCell>
        <mxCell id="7FEaSvrpscoCsIPX81Pi-19" value="SERVICE GROUP" style="rounded=0;whiteSpace=wrap;html=1;" parent="1" vertex="1">
          <mxGeometry x="500" y="157" width="140" height="60" as="geometry" />
        </mxCell>
        <mxCell id="7FEaSvrpscoCsIPX81Pi-26" value="" style="edgeStyle=orthogonalEdgeStyle;rounded=0;orthogonalLoop=1;jettySize=auto;html=1;" parent="1" source="7FEaSvrpscoCsIPX81Pi-22" target="7FEaSvrpscoCsIPX81Pi-3" edge="1">
          <mxGeometry relative="1" as="geometry">
            <mxPoint x="463" y="290.5" as="targetPoint" />
          </mxGeometry>
        </mxCell>
        <mxCell id="G853SdPx_o47AiwNdgev-6" value="&lt;b&gt;&lt;font style=&quot;font-size: 12px;&quot;&gt;Add_Domain&lt;/font&gt;&lt;/b&gt;" style="edgeLabel;html=1;align=center;verticalAlign=middle;resizable=0;points=[];" parent="7FEaSvrpscoCsIPX81Pi-26" vertex="1" connectable="0">
          <mxGeometry x="-0.0654" y="-1" relative="1" as="geometry">
            <mxPoint x="10" y="88" as="offset" />
          </mxGeometry>
        </mxCell>
        <mxCell id="7FEaSvrpscoCsIPX81Pi-22" value="SERVICE" style="rounded=0;whiteSpace=wrap;html=1;" parent="1" vertex="1">
          <mxGeometry x="500" y="247.5" width="140" height="60" as="geometry" />
        </mxCell>
        <mxCell id="McS0gaPzS9fzuC6fe3Yt-7" value="" style="edgeStyle=orthogonalEdgeStyle;rounded=0;orthogonalLoop=1;jettySize=auto;html=1;endArrow=none;startFill=1;startArrow=classic;" parent="1" source="7FEaSvrpscoCsIPX81Pi-27" target="McS0gaPzS9fzuC6fe3Yt-6" edge="1">
          <mxGeometry relative="1" as="geometry" />
        </mxCell>
        <mxCell id="7FEaSvrpscoCsIPX81Pi-27" value="USERGROUP" style="rounded=0;whiteSpace=wrap;html=1;" parent="1" vertex="1">
          <mxGeometry x="11" y="152" width="140" height="60" as="geometry" />
        </mxCell>
        <mxCell id="G853SdPx_o47AiwNdgev-4" value="" style="edgeStyle=orthogonalEdgeStyle;rounded=0;orthogonalLoop=1;jettySize=auto;html=1;" parent="1" source="I_nZyF2uMbn7yxlX-DZq-1" target="G853SdPx_o47AiwNdgev-1" edge="1">
          <mxGeometry relative="1" as="geometry" />
        </mxCell>
        <mxCell id="I_nZyF2uMbn7yxlX-DZq-1" value="TEMPLATE" style="rounded=0;whiteSpace=wrap;html=1;" parent="1" vertex="1">
          <mxGeometry x="-370" y="152" width="140" height="60" as="geometry" />
        </mxCell>
        <mxCell id="I_nZyF2uMbn7yxlX-DZq-8" value="" style="edgeStyle=orthogonalEdgeStyle;rounded=0;orthogonalLoop=1;jettySize=auto;html=1;startArrow=classic;startFill=1;" parent="1" edge="1">
          <mxGeometry relative="1" as="geometry">
            <mxPoint x="270" y="459" as="sourcePoint" />
            <mxPoint x="270" y="408" as="targetPoint" />
            <Array as="points">
              <mxPoint x="270" y="441" />
              <mxPoint x="270" y="441" />
            </Array>
          </mxGeometry>
        </mxCell>
        <mxCell id="I_nZyF2uMbn7yxlX-DZq-4" value="AGENT" style="rounded=0;whiteSpace=wrap;html=1;" parent="1" vertex="1">
          <mxGeometry x="200" y="455" width="140" height="60" as="geometry" />
        </mxCell>
        <mxCell id="I_nZyF2uMbn7yxlX-DZq-9" value="" style="edgeStyle=orthogonalEdgeStyle;rounded=0;orthogonalLoop=1;jettySize=auto;html=1;startArrow=classic;startFill=1;" parent="1" edge="1">
          <mxGeometry relative="1" as="geometry">
            <mxPoint x="270" y="350" as="sourcePoint" />
            <mxPoint x="270" y="307" as="targetPoint" />
          </mxGeometry>
        </mxCell>
        <mxCell id="dGcoPA0nN6RtC62RvCoz-1" value="PSK" style="edgeLabel;html=1;align=left;verticalAlign=middle;resizable=0;points=[];fontStyle=1;fontSize=12;" parent="I_nZyF2uMbn7yxlX-DZq-9" vertex="1" connectable="0">
          <mxGeometry x="0.0233" y="1" relative="1" as="geometry">
            <mxPoint x="-14" y="105" as="offset" />
          </mxGeometry>
        </mxCell>
        <mxCell id="I_nZyF2uMbn7yxlX-DZq-7" value="Zabbix&lt;div&gt;Proxy&lt;/div&gt;" style="ellipse;whiteSpace=wrap;html=1;" parent="1" vertex="1">
          <mxGeometry x="231" y="350" width="73" height="60" as="geometry" />
        </mxCell>
        <mxCell id="I_nZyF2uMbn7yxlX-DZq-11" value="" style="edgeStyle=orthogonalEdgeStyle;rounded=0;orthogonalLoop=1;jettySize=auto;html=1;endArrow=none;startFill=1;startArrow=classic;" parent="1" source="I_nZyF2uMbn7yxlX-DZq-10" target="I_nZyF2uMbn7yxlX-DZq-4" edge="1">
          <mxGeometry relative="1" as="geometry" />
        </mxCell>
        <mxCell id="I_nZyF2uMbn7yxlX-DZq-10" value="REMOTE HOST" style="rounded=0;whiteSpace=wrap;html=1;" parent="1" vertex="1">
          <mxGeometry x="200" y="556" width="140" height="60" as="geometry" />
        </mxCell>
        <mxCell id="I_nZyF2uMbn7yxlX-DZq-18" value="" style="edgeStyle=orthogonalEdgeStyle;rounded=0;orthogonalLoop=1;jettySize=auto;html=1;endArrow=none;startFill=1;startArrow=classic;entryX=0;entryY=0.5;entryDx=0;entryDy=0;" parent="1" source="I_nZyF2uMbn7yxlX-DZq-14" target="7FEaSvrpscoCsIPX81Pi-3" edge="1">
          <mxGeometry relative="1" as="geometry">
            <Array as="points">
              <mxPoint x="-100" y="277" />
            </Array>
          </mxGeometry>
        </mxCell>
        <mxCell id="I_nZyF2uMbn7yxlX-DZq-14" value="INTERFACE" style="rounded=0;whiteSpace=wrap;html=1;" parent="1" vertex="1">
          <mxGeometry x="-170" y="367" width="140" height="60" as="geometry" />
        </mxCell>
        <mxCell id="McS0gaPzS9fzuC6fe3Yt-5" value="" style="edgeStyle=orthogonalEdgeStyle;rounded=0;orthogonalLoop=1;jettySize=auto;html=1;startArrow=classic;startFill=1;" parent="1" source="McS0gaPzS9fzuC6fe3Yt-1" target="McS0gaPzS9fzuC6fe3Yt-4" edge="1">
          <mxGeometry relative="1" as="geometry" />
        </mxCell>
        <mxCell id="McS0gaPzS9fzuC6fe3Yt-1" value="CLOUD" style="ellipse;shape=cloud;whiteSpace=wrap;html=1;" parent="1" vertex="1">
          <mxGeometry x="367" y="-166" width="120" height="80" as="geometry" />
        </mxCell>
        <mxCell id="McS0gaPzS9fzuC6fe3Yt-4" value="APP" style="rounded=0;whiteSpace=wrap;html=1;" parent="1" vertex="1">
          <mxGeometry x="108" y="-156" width="120" height="60" as="geometry" />
        </mxCell>
        <mxCell id="McS0gaPzS9fzuC6fe3Yt-6" value="USER" style="rounded=0;whiteSpace=wrap;html=1;" parent="1" vertex="1">
          <mxGeometry x="11" y="370" width="140" height="60" as="geometry" />
        </mxCell>
        <mxCell id="McS0gaPzS9fzuC6fe3Yt-13" value="" style="edgeStyle=orthogonalEdgeStyle;rounded=0;orthogonalLoop=1;jettySize=auto;html=1;" parent="1" source="McS0gaPzS9fzuC6fe3Yt-8" target="McS0gaPzS9fzuC6fe3Yt-6" edge="1">
          <mxGeometry relative="1" as="geometry" />
        </mxCell>
        <mxCell id="McS0gaPzS9fzuC6fe3Yt-8" value="NOTIFICATION" style="rounded=0;whiteSpace=wrap;html=1;" parent="1" vertex="1">
          <mxGeometry x="11" y="473.5" width="140" height="60" as="geometry" />
        </mxCell>
        <mxCell id="McS0gaPzS9fzuC6fe3Yt-14" value="DASHBOARD" style="rounded=0;whiteSpace=wrap;html=1;" parent="1" vertex="1">
          <mxGeometry x="690" y="148" width="140" height="60" as="geometry" />
        </mxCell>
        <mxCell id="McS0gaPzS9fzuC6fe3Yt-17" value="&lt;span style=&quot;color: rgb(51, 51, 51); font-family: &amp;quot;Open Sans&amp;quot;, sans-serif; text-align: start; text-wrap-mode: wrap; background-color: rgb(255, 255, 255);&quot;&gt;&lt;font style=&quot;font-size: 14px;&quot;&gt;polling&amp;nbsp;&lt;/font&gt;&lt;/span&gt;" style="text;html=1;align=center;verticalAlign=middle;resizable=0;points=[];autosize=1;strokeColor=none;fillColor=none;rotation=-90;fontStyle=1" parent="1" vertex="1">
          <mxGeometry x="175" y="365" width="70" height="30" as="geometry" />
        </mxCell>
        <mxCell id="McS0gaPzS9fzuC6fe3Yt-19" value="" style="edgeStyle=orthogonalEdgeStyle;rounded=0;orthogonalLoop=1;jettySize=auto;html=1;startArrow=classic;startFill=0;endArrow=none;" parent="1" source="7FEaSvrpscoCsIPX81Pi-3" target="I_nZyF2uMbn7yxlX-DZq-4" edge="1">
          <mxGeometry relative="1" as="geometry">
            <mxPoint x="319" y="314" as="sourcePoint" />
            <mxPoint x="319" y="462" as="targetPoint" />
            <Array as="points">
              <mxPoint x="320" y="377" />
              <mxPoint x="320" y="377" />
            </Array>
          </mxGeometry>
        </mxCell>
        <mxCell id="McS0gaPzS9fzuC6fe3Yt-20" value="&lt;span style=&quot;color: rgb(51, 51, 51); font-family: &amp;quot;Open Sans&amp;quot;, sans-serif; text-align: start; text-wrap-mode: wrap; background-color: rgb(255, 255, 255);&quot;&gt;&lt;font style=&quot;font-size: 14px;&quot;&gt;trapping&lt;/font&gt;&lt;/span&gt;" style="text;html=1;align=center;verticalAlign=middle;resizable=0;points=[];autosize=1;strokeColor=none;fillColor=none;rotation=-90;fontStyle=1" parent="1" vertex="1">
          <mxGeometry x="294" y="370" width="70" height="30" as="geometry" />
        </mxCell>
        <mxCell id="G853SdPx_o47AiwNdgev-1" value="TEMPLATE GROUP" style="rounded=0;whiteSpace=wrap;html=1;" parent="1" vertex="1">
          <mxGeometry x="-170" y="152" width="140" height="60" as="geometry" />
        </mxCell>
        <mxCell id="G853SdPx_o47AiwNdgev-7" value="" style="verticalLabelPosition=bottom;sketch=0;aspect=fixed;html=1;verticalAlign=top;strokeColor=none;align=center;outlineConnect=0;shape=mxgraph.citrix.firewall;" parent="1" vertex="1">
          <mxGeometry x="402.8" y="-30" width="48.39" height="60" as="geometry" />
        </mxCell>
        <mxCell id="G853SdPx_o47AiwNdgev-13" value="" style="edgeStyle=orthogonalEdgeStyle;rounded=0;orthogonalLoop=1;jettySize=auto;html=1;" parent="1" source="G853SdPx_o47AiwNdgev-11" target="G853SdPx_o47AiwNdgev-7" edge="1">
          <mxGeometry relative="1" as="geometry">
            <mxPoint x="331" y="-10" as="targetPoint" />
          </mxGeometry>
        </mxCell>
        <mxCell id="G853SdPx_o47AiwNdgev-11" value="Rules firewall" style="rounded=0;whiteSpace=wrap;html=1;" parent="1" vertex="1">
          <mxGeometry x="111" y="-30" width="120" height="60" as="geometry" />
        </mxCell>
        <mxCell id="G853SdPx_o47AiwNdgev-18" value="" style="edgeStyle=orthogonalEdgeStyle;rounded=0;orthogonalLoop=1;jettySize=auto;html=1;" parent="1" source="G853SdPx_o47AiwNdgev-16" target="G853SdPx_o47AiwNdgev-17" edge="1">
          <mxGeometry relative="1" as="geometry" />
        </mxCell>
        <mxCell id="G853SdPx_o47AiwNdgev-20" value="" style="edgeStyle=orthogonalEdgeStyle;rounded=0;orthogonalLoop=1;jettySize=auto;html=1;" parent="1" source="G853SdPx_o47AiwNdgev-16" target="G853SdPx_o47AiwNdgev-19" edge="1">
          <mxGeometry relative="1" as="geometry" />
        </mxCell>
        <mxCell id="G853SdPx_o47AiwNdgev-16" value="CONFIGURE" style="rounded=0;whiteSpace=wrap;html=1;" parent="1" vertex="1">
          <mxGeometry x="367" y="640" width="140" height="60" as="geometry" />
        </mxCell>
        <mxCell id="G853SdPx_o47AiwNdgev-17" value="ZABBIX SERVER" style="rounded=0;whiteSpace=wrap;html=1;" parent="1" vertex="1">
          <mxGeometry x="199" y="640" width="140" height="60" as="geometry" />
        </mxCell>
        <mxCell id="G853SdPx_o47AiwNdgev-19" value="ZABBIX AGENT" style="rounded=0;whiteSpace=wrap;html=1;" parent="1" vertex="1">
          <mxGeometry x="546" y="640" width="140" height="60" as="geometry" />
        </mxCell>
        <mxCell id="Yr5YWR8vYJplp38NHzuM-2" value="" style="edgeStyle=orthogonalEdgeStyle;rounded=0;orthogonalLoop=1;jettySize=auto;html=1;" edge="1" parent="1" source="Yr5YWR8vYJplp38NHzuM-1" target="McS0gaPzS9fzuC6fe3Yt-8">
          <mxGeometry relative="1" as="geometry" />
        </mxCell>
        <mxCell id="Yr5YWR8vYJplp38NHzuM-1" value="MIDIA TYPE" style="rounded=0;whiteSpace=wrap;html=1;" vertex="1" parent="1">
          <mxGeometry x="-169" y="473" width="140" height="60" as="geometry" />
        </mxCell>
        <mxCell id="Yr5YWR8vYJplp38NHzuM-4" value="" style="edgeStyle=orthogonalEdgeStyle;rounded=0;orthogonalLoop=1;jettySize=auto;html=1;" edge="1" parent="1" source="Yr5YWR8vYJplp38NHzuM-3" target="McS0gaPzS9fzuC6fe3Yt-8">
          <mxGeometry relative="1" as="geometry" />
        </mxCell>
        <mxCell id="Yr5YWR8vYJplp38NHzuM-3" value="TRIGGER" style="rounded=0;whiteSpace=wrap;html=1;" vertex="1" parent="1">
          <mxGeometry x="11" y="567.5" width="140" height="60" as="geometry" />
        </mxCell>
      </root>
    </mxGraphModel>
  </diagram>
</mxfile>
